<?xml version="1.0" encoding="utf-8"?>
<!-- Generator: Adobe Illustrator 17.0.0, SVG Export Plug-In . SVG Version: 6.00 Build 0)  -->
<!DOCTYPE svg PUBLIC "-//W3C//DTD SVG 1.1//EN" "http://www.w3.org/Graphics/SVG/1.1/DTD/svg11.dtd">
<svg version="1.1" id="Layer_1" xmlns="http://www.w3.org/2000/svg" xmlns:xlink="http://www.w3.org/1999/xlink" x="0px" y="0px"
	 width="302.597px" height="111.3px" viewBox="0 0 302.597 111.3" enable-background="new 0 0 302.597 111.3" xml:space="preserve">
<g>
	<rect x="0" y="0" fill="#D82C20" width="302.597" height="111.3"/>
</g>
<g>
	<g>
		<polygon fill="#FFFFFF" points="63.104,77.155 38.818,77.155 38.818,28.877 28.719,28.877 28.719,86.351 63.104,86.351 		"/>
	</g>
	<g>
		<defs>
			<rect id="SVGID_1_" x="34.719" y="-19.228" width="239.159" height="106.534"/>
		</defs>
		<clipPath id="SVGID_2_">
			<use xlink:href="#SVGID_1_"  overflow="visible"/>
		</clipPath>
		<path clip-path="url(#SVGID_2_)" fill="#FFFFFF" d="M202.319,64.924v-0.16c0-3.097-0.571-5.982-1.707-8.668
			c-1.139-2.687-2.724-5.05-4.762-7.082c-2.033-2.035-4.449-3.634-7.246-4.804c-2.793-1.166-5.845-1.75-9.156-1.75
			c-3.309,0-6.36,0.6-9.155,1.794c-2.796,1.193-5.207,2.805-7.243,4.841c-2.034,2.035-3.634,4.41-4.801,7.118
			c-1.167,2.717-1.751,5.618-1.751,8.71v0.163c0,3.041,0.571,5.915,1.711,8.628c1.141,2.713,2.726,5.07,4.759,7.082
			c2.04,2.006,4.452,3.595,7.244,4.759c2.794,1.169,5.819,1.75,9.077,1.75c3.308,0,6.371-0.6,9.193-1.791
			c2.821-1.195,5.254-2.809,7.287-4.841c2.032-2.036,3.632-4.409,4.798-7.123C201.736,70.84,202.319,67.963,202.319,64.924
			 M192.47,65.087c0,1.846-0.3,3.596-0.894,5.249c-0.599,1.657-1.465,3.109-2.605,4.357c-1.139,1.245-2.506,2.235-4.11,2.971
			c-1.6,0.73-3.402,1.093-5.413,1.093c-1.895,0-3.648-0.363-5.248-1.093c-1.6-0.737-2.98-1.739-4.149-3.016
			c-1.167-1.273-2.076-2.753-2.727-4.437c-0.65-1.679-0.976-3.442-0.976-5.288v-0.16c0-1.903,0.298-3.678,0.894-5.333
			c0.6-1.655,1.465-3.093,2.604-4.315c1.141-1.221,2.508-2.193,4.115-2.93c1.597-0.732,3.371-1.095,5.33-1.095
			c1.949,0,3.724,0.363,5.328,1.095c1.6,0.738,2.987,1.727,4.152,2.972c1.169,1.25,2.072,2.714,2.729,4.393
			c0.645,1.683,0.972,3.477,0.972,5.373V65.087z"/>
		<path clip-path="url(#SVGID_2_)" fill="#FFFFFF" d="M225.559,86.613c1.325-0.405,2.55-0.958,3.659-1.665
			c1.112-0.704,2.092-1.506,2.931-2.399c0.842-0.902,1.616-1.86,2.321-2.893v6.673h9.848V43.356h-9.848v24.255
			c0,3.362-0.891,5.982-2.685,7.853c-1.793,1.87-4.127,2.808-7,2.808c-2.932,0-5.2-0.91-6.799-2.723
			c-1.599-1.819-2.399-4.413-2.399-7.776V43.356h-9.845v27.347c0,5.046,1.327,9.061,3.987,12.044
			c2.657,2.987,6.429,4.481,11.31,4.481C222.722,87.228,224.226,87.019,225.559,86.613"/>
		<path clip-path="url(#SVGID_2_)" fill="#FFFFFF" d="M248.808,86.331h9.847V69.974c0-2.882,0.353-5.373,1.059-7.49
			c0.707-2.117,1.71-3.881,3.012-5.289c1.301-1.41,2.846-2.47,4.639-3.176c1.786-0.708,3.773-1.06,5.94-1.06h0.573V42.545
			c-3.8-0.165-6.946,0.734-9.445,2.686c-2.493,1.949-4.424,4.554-5.779,7.812v-9.688h-9.847V86.331z"/>
		<path clip-path="url(#SVGID_2_)" fill="#FFFFFF" d="M103.816,64.718v-1.584v-2.279c0-5.75-1.546-10.217-4.638-13.389
			c-3.094-3.172-7.843-4.759-14.241-4.759c-3.53,0-6.539,0.322-9.037,0.977c-2.497,0.651-4.94,1.517-7.324,2.602l2.685,7.892
			c1.953-0.81,3.878-1.463,5.779-1.949c1.896-0.49,4.071-0.737,6.511-0.737c3.419,0,6.034,0.79,7.853,2.362
			c1.818,1.573,2.729,3.854,2.729,6.837l-0.084,25.637h9.767v-9.439v-6.364V64.718z"/>
		<path clip-path="url(#SVGID_2_)" fill="#FFFFFF" d="M109.432,26.916v36.218v3.233v6.037v4.485v9.439h9.846V72.502
			c-4.922-7.211-5.55-13.302,0-21.009V26.916H109.432z"/>
	</g>
	<g>
		<defs>
			<rect id="SVGID_3_" x="34.719" y="-19.228" width="239.159" height="106.534"/>
		</defs>
		<clipPath id="SVGID_4_">
			<use xlink:href="#SVGID_3_"  overflow="visible"/>
		</clipPath>
		<path clip-path="url(#SVGID_4_)" fill="#FFFFFF" d="M79.49,87.225c-8.512,0-14.658-5.77-14.658-13.429
			c0-5.852,3.232-14.081,17.415-14.081c22.134,0,38.092,18.95,48.798,18.95c9.151,0,12.815-7.401,12.815-13.903
			c0-5.514-3.362-13.751-12.288-13.751c-11.593,0-18.807,17.206-5.627,26.533c-20.579-5.364-13.481-34.187,7.904-35.083
			c12.915-0.54,20.023,10.806,20.023,22.301c0,12.981-8.086,22.464-20.023,22.464c-17.97,0-25.603-20.595-49.405-20.595
			c-8.771,0-9.845,4.831-9.845,6.677c0,2.383,1.374,6.511,8.304,6.511c5.435,0,10.295-5.5,10.295-5.818
			C93.197,76.64,88.648,87.225,79.49,87.225"/>
	</g>
</g>
</svg>
